<svg xmlns="http://www.w3.org/2000/svg" xmlns:xlink="http://www.w3.org/1999/xlink" width="536.5" height="417.591" viewBox="0 0 536.5 417.591">
  <defs>
    <clipPath id="clip-path">
      <path id="Path_267" data-name="Path 267" d="M250.671,233.467c.579,2.215,1.183,4.418,1.787,6.571,6.294,22.658,14.476,65.772,14.476,65.772,40.282,8.5,82.766,0,82.766,0,.227-9.391-.919-21.79-2.19-34.819,6.6-1.825,11.329-7.918,11.631-18.051.315-12.273-1.913-34.365-3.147-44.688-1.1-9.076-.315-14.476-14.376-21.4-7.049-4.066-18.756-5.992-33.144-7.918-28.323-3.776-48.766,1.951-56.017,5.035-5.753-1.511-7.351,5.237-7.351,5.237-3.185-2.4-6.886,7.792-6.886,7.792-9.315,11.883-16.641,31.9-19.083,39.023a8.334,8.334,0,0,1-2.845,3.915c-6.609,5.035-2.933,11.266-2.933,11.266l13.532,4.141s6.558,1.712,11.568-6.911C242.639,241.234,249.487,229.011,250.671,233.467Z" transform="translate(-212.34 -177.691)" fill="#353535" stroke="#263238" stroke-linecap="round" stroke-linejoin="round" stroke-width="1"/>
    </clipPath>
    <clipPath id="clip-path-2">
      <path id="Path_286" data-name="Path 286" d="M298.538,180.21c-1.183-4.141-6.584-5.3-6.584-5.3-25.805-4.406-31.256,5.035-31.256,5.035a37.991,37.991,0,0,0,0,26.435s7.339-3.046,8.6,0,3.562,9.542,3.562,9.542a29.1,29.1,0,0,0,8.975-7.867c3.99-5.249,13.356,0,13.356,0C301.257,197.569,298.538,180.21,298.538,180.21Zm-6.294-.3c-9.995,31.369-18.806,32.729-18.806,32.729-2.933-11.531-5.451-9.013-9.441-16.226-3.2-5.79-2.115-13.117-1.561-15.8a2.2,2.2,0,0,1,1.133-1.511c9.919-5.035,22.054-3.185,27.052-2.09a2.241,2.241,0,0,1,1.674,2.9Z" transform="translate(-258.325 -173.739)" fill="#353535" stroke="#263238" stroke-linecap="round" stroke-linejoin="round" stroke-width="1"/>
    </clipPath>
    <clipPath id="clip-path-3">
      <circle id="Ellipse_8" data-name="Ellipse 8" cx="31.319" cy="31.319" r="31.319" transform="translate(0 60.931) rotate(-76.59)" stroke-width="0.75" stroke="#263238" stroke-linecap="round" stroke-linejoin="round" fill="#353535"/>
    </clipPath>
    <clipPath id="clip-path-4">
      <circle id="Ellipse_12" data-name="Ellipse 12" cx="26.724" cy="26.724" r="26.724" transform="matrix(0.228, -0.974, 0.974, 0.228, 0, 52.045)" stroke-width="0.75" stroke="#263238" stroke-linecap="round" stroke-linejoin="round" fill="#353535"/>
    </clipPath>
    <clipPath id="clip-path-5">
      <circle id="Ellipse_16" data-name="Ellipse 16" cx="26.661" cy="26.661" r="26.661" transform="translate(0 51.869) rotate(-76.59)" stroke-width="0.75" stroke="#263238" stroke-linecap="round" stroke-linejoin="round" fill="#353535"/>
    </clipPath>
    <clipPath id="clip-path-6">
      <rect id="Rectangle_94" data-name="Rectangle 94" width="37.047" height="18.706" transform="translate(37.047 18.706) rotate(180)" fill="#353535" stroke="#263238" stroke-miterlimit="10" stroke-width="1"/>
    </clipPath>
  </defs>
  <g id="Group_27" data-name="Group 27" transform="translate(-691 -204.346)">
    <g id="freepik--Floor--inject-9" transform="translate(706.409 620.466)">
      <line id="Line_2" data-name="Line 2" x2="520.591" stroke-width="1" stroke="#263238" stroke-linecap="round" stroke-linejoin="round" fill="none"/>
    </g>
    <g id="freepik--Plant--inject-9" transform="translate(691 407.779)">
      <path id="Path_230" data-name="Path 230" d="M122.125,308.734c7.553,6.294,5.035,43.3,28.65,27.379s-16.616-25.352-14.325-34.378c3.223-12.588,56.357,2.518,47.444-21.651s-40.684,12.185-49.03,3.185c-7.679-8.283,30.564-38.217,12.739-43.3s-14.036,38.2-25.478,38.2c-8.937,0-7.263-41.389-23.691-26.75s19.474,29.078,14.778,38.167c-3.575,6.911-31.835-10.146-30.564,5.778S114.068,302.075,122.125,308.734Z" transform="translate(-17.617 -239.55)" fill="#353535"/>
      <path id="Path_231" data-name="Path 231" d="M121.167,279.47S104,300.278,105.911,356.987" transform="translate(-11.625 -229.219)" fill="none" stroke="#263238" stroke-linecap="round" stroke-linejoin="round" stroke-width="1"/>
      <path id="Path_232" data-name="Path 232" d="M148.389,310.835c-3.046-6.13-28.31-10.322-13.847-23.628s14.413,15.219,20.846,15.106c9-.151,7.251-38.293,22.1-28.449s-14.678,25.415-9.945,32.452c4.343,6.483,30.551-14.464,31.143-1.662s-27.92,3.323-29.746,11.04c-1.422,6,26.674,11.468,14.212,20.141s-16.453-17.711-23.3-16c-5.224,1.259,1.75,23.024-8.749,19.625S151.586,317.255,148.389,310.835Z" transform="translate(-5.324 -231.09)" fill="#353535"/>
      <path id="Path_233" data-name="Path 233" d="M148.389,310.835c-3.046-6.13-28.31-10.322-13.847-23.628s14.413,15.219,20.846,15.106c9-.151,7.251-38.293,22.1-28.449s-14.678,25.415-9.945,32.452c4.343,6.483,30.551-14.464,31.143-1.662s-27.92,3.323-29.746,11.04c-1.422,6,26.674,11.468,14.212,20.141s-16.453-17.711-23.3-16c-5.224,1.259,1.75,23.024-8.749,19.625S151.586,317.255,148.389,310.835Z" transform="translate(-5.324 -231.09)" opacity="0.3"/>
      <path id="Path_234" data-name="Path 234" d="M166.053,303.137s-48.93-5.1-53.763,47.759" transform="translate(-9.935 -223.128)" fill="none" stroke="#263238" stroke-linecap="round" stroke-linejoin="round" stroke-width="1"/>
      <path id="Path_235" data-name="Path 235" d="M93.744,312.784c-7.553,6.294-5.035,43.3-28.65,27.379S81.723,314.8,79.419,305.785c-3.21-12.588-56.357,2.518-47.432-21.651s40.672,12.2,49.093,3.185c7.666-8.27-30.564-38.2-12.739-43.3s13.985,38.217,25.466,38.217c8.938,0,7.276-41.4,23.7-26.75s-19.486,29.078-14.778,38.167c3.562,6.911,31.835-10.146,30.564,5.765S101.763,306.125,93.744,312.784Z" transform="translate(-30.979 -238.502)" fill="#353535"/>
      <path id="Path_236" data-name="Path 236" d="M93.744,312.784c-7.553,6.294-5.035,43.3-28.65,27.379S81.723,314.8,79.419,305.785c-3.21-12.588-56.357,2.518-47.432-21.651s40.672,12.2,49.093,3.185c7.666-8.27-30.564-38.2-12.739-43.3s13.985,38.217,25.466,38.217c8.938,0,7.276-41.4,23.7-26.75s-19.486,29.078-14.778,38.167c3.562,6.911,31.835-10.146,30.564,5.765S101.763,306.125,93.744,312.784Z" transform="translate(-30.979 -238.502)" fill="#fff" opacity="0.3"/>
      <path id="Path_237" data-name="Path 237" d="M76.54,283.52s22.281,29.758,27.379,79.418" transform="translate(-19.187 -228.171)" fill="none" stroke="#263238" stroke-linecap="round" stroke-linejoin="round" stroke-width="1"/>
      <path id="Path_238" data-name="Path 238" d="M92.964,426.8h34.743a12.815,12.815,0,0,0,12.827-11.757l5.463-64.2A12.815,12.815,0,0,0,133.233,337H87.5a12.8,12.8,0,0,0-12.752,13.847l5.463,64.2A12.8,12.8,0,0,0,92.964,426.8Z" transform="translate(-19.662 -214.33)" fill="#353535" stroke="#263238" stroke-linecap="round" stroke-linejoin="round" stroke-width="1"/>
    </g>
    <g id="freepik--Character--inject-9" transform="translate(898.543 270.813)">
      <path id="Path_239" data-name="Path 239" d="M305.163,336.653c-11.619,0-45.153-7.553-45.153-7.553h90.307S316.769,336.653,305.163,336.653Z" transform="translate(-179.247 -79.408)" fill="#263238" stroke="#263238" stroke-linecap="round" stroke-linejoin="round" stroke-width="1"/>
      <rect id="Rectangle_85" data-name="Rectangle 85" width="20.695" height="14.187" transform="translate(115.568 253.456)" stroke-width="1" stroke="#263238" stroke-linecap="round" stroke-linejoin="round" fill="#858585"/>
      <rect id="Rectangle_86" data-name="Rectangle 86" width="26.813" height="60.989" transform="translate(112.51 267.642)" stroke-width="1" stroke="#263238" stroke-linecap="round" stroke-linejoin="round" fill="#999"/>
      <path id="Path_240" data-name="Path 240" d="M339.485,322.187H322c1.939-12.009,3.374-24.245,4.255-36.367h17.422C342.846,297.942,341.423,310.178,339.485,322.187Z" transform="translate(-163.204 -90.609)" fill="#858585" stroke="#263238" stroke-linecap="round" stroke-linejoin="round" stroke-width="1"/>
      <path id="Path_241" data-name="Path 241" d="M375.08,200.48H299.954c-8.812,0-14.615,7.465-12.9,16.251a571.081,571.081,0,0,1,8.585,81.243,14.036,14.036,0,0,0,14.161,14.1H373.04a16.49,16.49,0,0,0,16.15-14.1,564.977,564.977,0,0,0,3.3-81.243C392.074,207.945,383.9,200.48,375.08,200.48Z" transform="translate(-172.327 -112.696)" fill="#858585" stroke="#263238" stroke-linecap="round" stroke-linejoin="round" stroke-width="1"/>
      <path id="Path_242" data-name="Path 242" d="M379.168,216.731a564.981,564.981,0,0,1-3.3,81.243,16.49,16.49,0,0,1-16.15,14.1H309.8a14.036,14.036,0,0,1-14.161-14.1,571.072,571.072,0,0,0-8.572-81.243c-1.712-8.812,4.066-16.251,12.9-16.251h61.795C370.583,200.48,378.753,207.945,379.168,216.731Z" transform="translate(-172.324 -112.696)" fill="#999" stroke="#263238" stroke-linecap="round" stroke-linejoin="round" stroke-width="1"/>
      <path id="Path_243" data-name="Path 243" d="M350.317,403.041a2.241,2.241,0,0,1-2.719,2.19c-8.22-1.787-32.83-6.974-42.434-6.974s-34.227,5.186-42.447,6.974a2.228,2.228,0,0,1-2.706-2.19h0a5.879,5.879,0,0,1,4.645-5.753c9.617-2.064,31.558-6.558,40.508-6.558s30.891,4.494,40.508,6.558A5.891,5.891,0,0,1,350.317,403.041Z" transform="translate(-179.247 -63.458)" fill="#263238" stroke="#263238" stroke-linecap="round" stroke-linejoin="round" stroke-width="1"/>
      <path id="Path_244" data-name="Path 244" d="M261.592,396.91a7.729,7.729,0,1,0,7.716,7.716,7.729,7.729,0,0,0-7.716-7.716Zm0,11.908a4.192,4.192,0,1,1,4.179-4.192,4.192,4.192,0,0,1-4.179,4.192Z" transform="translate(-180.842 -61.859)" fill="#858585" stroke="#263238" stroke-linecap="round" stroke-linejoin="round" stroke-width="1"/>
      <path id="Path_245" data-name="Path 245" d="M297.474,396.91a7.729,7.729,0,1,0,7.7,7.666A7.729,7.729,0,0,0,297.474,396.91Zm0,11.908a4.192,4.192,0,1,1,2.974-1.25A4.192,4.192,0,0,1,297.474,408.818Z" transform="translate(-171.558 -61.859)" fill="#858585" stroke="#263238" stroke-linecap="round" stroke-linejoin="round" stroke-width="1"/>
      <path id="Path_246" data-name="Path 246" d="M332.589,396.91a7.716,7.716,0,1,0,5.464,2.256,7.729,7.729,0,0,0-5.464-2.256Zm0,11.908a4.192,4.192,0,1,1,4.192-4.192A4.192,4.192,0,0,1,332.589,408.818Z" transform="translate(-162.464 -61.859)" fill="#858585" stroke="#263238" stroke-linecap="round" stroke-linejoin="round" stroke-width="1"/>
      <path id="Path_247" data-name="Path 247" d="M334.9,313.621a595.521,595.521,0,0,1-90.244-3.99,9.441,9.441,0,0,0-11.115,9.554v1.473a13.28,13.28,0,0,0,11.115,12.789,597.165,597.165,0,0,0,90.244,3.99Z" transform="translate(-186.099 -84.486)" fill="#999" stroke="#263238" stroke-linecap="round" stroke-linejoin="round" stroke-width="1"/>
      <path id="Path_248" data-name="Path 248" d="M364.9,333.131c-18.706,2.341-37.248,3.89-56.08,4.7a8.069,8.069,0,0,1-8.321-8.119v-7.238a8.535,8.535,0,0,1,8.321-8.447c18.882-.818,37.374-2.367,56.08-4.708a6.974,6.974,0,0,1,8.258,7.062v7.238a9.919,9.919,0,0,1-8.258,9.517Z" transform="translate(-168.769 -84.56)" fill="#858585" stroke="#263238" stroke-linecap="round" stroke-linejoin="round" stroke-width="1"/>
      <path id="Path_249" data-name="Path 249" d="M265.925,415.615c0-4.2-.919-12.588-5.879-23.477l-6.458-23.288-20.141,8.6,5.665,17.837s-17.309,8.258-23.7,10.486c-4.255,1.485-16.994,4.406-16.364,9.869h0a2.933,2.933,0,0,0,2.933,2.933h61a2.933,2.933,0,0,0,2.946-2.958Z" transform="translate(-195.031 -69.121)" fill="#fff" stroke="#263238" stroke-linecap="round" stroke-linejoin="round" stroke-width="1"/>
      <path id="Path_250" data-name="Path 250" d="M254.835,396.549c-3.147,2.316-19.927,5.249-15.722,1.888s0-8.6,0-8.6-17.309,8.258-23.7,10.486c-4.255,1.485-16.994,4.406-16.364,9.869a2.933,2.933,0,0,0,2.933,2.933h61a2.92,2.92,0,0,0,2.933-2.958,55.55,55.55,0,0,0-3.852-18.605C258.6,391.6,257.982,394.246,254.835,396.549Z" transform="translate(-195.031 -63.689)" fill="#353535" stroke="#263238" stroke-linecap="round" stroke-linejoin="round" stroke-width="1"/>
      <path id="Path_251" data-name="Path 251" d="M264.135,417.592h44.687a1.926,1.926,0,0,0,1.888-1.561c.68-3.55.529-11.493-3.5-22.042l-.4-21.4-22.885,3.89,2.9,18.253s-9.214,10.146-13.6,11.959c-3.071,1.259-10.07,1.41-11,8.812a1.913,1.913,0,0,0,1.913,2.09Z" transform="translate(-178.677 -68.153)" fill="#fff" stroke="#263238" stroke-linecap="round" stroke-linejoin="round" stroke-width="1"/>
      <path id="Path_252" data-name="Path 252" d="M299.7,396.694c-4.721,3.3-8.207,3.688-6-1.259s-6.835-5.123-6.835-5.123-9.214,10.146-13.6,11.959c-3.071,1.259-10.07,1.41-11,8.812a1.913,1.913,0,0,0,1.913,2.14h44.688a1.926,1.926,0,0,0,1.888-1.561c.68-3.55.529-11.493-3.5-22.042C303.753,390.426,304.382,393.384,299.7,396.694Z" transform="translate(-178.668 -63.745)" fill="#353535" stroke="#263238" stroke-linecap="round" stroke-linejoin="round" stroke-width="1"/>
      <path id="Path_253" data-name="Path 253" d="M276.474,279.131s-4.507,4.607-22.923,7.553-56.646,12.16-56.18,27.266,35.674,95.669,35.674,95.669,17.623-3.348,25.805-8.384c0,0-14.187-57.49-24.824-72.6,0,0,47.746-5.879,74.156-16.78s10.876-35.75,10.876-35.75Z" transform="translate(-195.46 -93.122)" fill="#263238" stroke="#263238" stroke-linecap="round" stroke-linejoin="round" stroke-width="1"/>
      <path id="Path_254" data-name="Path 254" d="M289.982,277.009s6.772,11.329,1.712,17.623-33.8,18.039-30.551,32.314,13.973,34.4,20.959,82.238c0,0,16.276-2.518,27.178-7.137,0,0,1.813-48.665-10.838-69.65,0,0,36.228-6.709,39.9-18.882s-3.2-30.778-3.336-37.424Z" transform="translate(-179.02 -93.127)" fill="#263238" stroke="#263238" stroke-linecap="round" stroke-linejoin="round" stroke-width="1"/>
      <path id="Path_255" data-name="Path 255" d="M267.218,291.15a16.779,16.779,0,0,0-2.518,0" transform="translate(-178.034 -89.242)" fill="none" stroke="#7f7f7f" stroke-linecap="round" stroke-linejoin="round" stroke-width="0.75"/>
      <path id="Path_256" data-name="Path 256" d="M268,285.17s7.44,2.19,10.36,11.9a.78.78,0,0,1-1.259.78,17.95,17.95,0,0,0-7.163-4.507" transform="translate(-177.18 -90.778)" fill="none" stroke="#7f7f7f" stroke-linecap="round" stroke-linejoin="round" stroke-width="0.75"/>
      <path id="Path_257" data-name="Path 257" d="M226.528,319.639c0-4.091-17.623-6.294-12.9-10.07s15.42,8.5,15.42,8.5" transform="translate(-191.46 -84.65)" fill="none" stroke="#7f7f7f" stroke-linecap="round" stroke-linejoin="round" stroke-width="0.75"/>
      <path id="Path_258" data-name="Path 258" d="M295.8,333.237c0-4.683-16.843-7.238-16-12.273s11.543,4.884,11.543,4.884" transform="translate(-174.135 -81.883)" fill="none" stroke="#7f7f7f" stroke-linecap="round" stroke-linejoin="round" stroke-width="0.75"/>
      <path id="Path_259" data-name="Path 259" d="M224.248,384.667l1.85,4.28a1.108,1.108,0,0,0,1.259.642c4.066-.919,21.035-4.922,26.989-9.2a1.07,1.07,0,0,0,.4-1.133l-1.158-4.771a1.1,1.1,0,0,0-1.6-.7c-2.681,1.46-10.146,4.947-27,9.378a1.12,1.12,0,0,0-.743,1.511Z" transform="translate(-188.525 -67.881)" fill="#999" stroke="#263238" stroke-linecap="round" stroke-linejoin="round" stroke-width="1"/>
      <path id="Path_260" data-name="Path 260" d="M276.152,381.133a.869.869,0,0,1,1.146-.944,11.065,11.065,0,0,0,6.294.088c4.67-1.057,18.026-5.287,22-6.558a.869.869,0,0,1,1.133.831v5.564a.856.856,0,0,1-.516.793c-3.122,1.4-19.851,8.56-28.6,6.609a.856.856,0,0,1-.655-.73Z" transform="translate(-175.072 -67.872)" fill="#999" stroke="#263238" stroke-linecap="round" stroke-linejoin="round" stroke-width="1"/>
      <path id="Path_261" data-name="Path 261" d="M292.831,287a8.812,8.812,0,0,1-1.825,4.783c-3.7,4.595-19.977,12.085-27.266,21.4" transform="translate(-178.282 -90.304)" fill="none" stroke="#7f7f7f" stroke-linecap="round" stroke-linejoin="round" stroke-width="1"/>
      <path id="Path_262" data-name="Path 262" d="M286.22,282a20.138,20.138,0,0,1,.642,2.832" transform="translate(-172.464 -91.598)" fill="none" stroke="#7f7f7f" stroke-linecap="round" stroke-linejoin="round" stroke-width="1"/>
      <path id="Path_263" data-name="Path 263" d="M209.64,400.42a21.5,21.5,0,0,1,2.2,5.979H257.3a8.031,8.031,0,0,1,2.518-5.186" transform="translate(-192.283 -60.95)" fill="none" stroke="#263238" stroke-linecap="round" stroke-linejoin="round" stroke-width="1"/>
      <path id="Path_264" data-name="Path 264" d="M272.39,400.42s6.294.478,8.648,5.979H304.8a15.456,15.456,0,0,0,1.259-5.186" transform="translate(-176.043 -60.95)" fill="none" stroke="#263238" stroke-linecap="round" stroke-linejoin="round" stroke-width="1"/>
      <path id="Path_265" data-name="Path 265" d="M250.671,233.467c.579,2.215,1.183,4.418,1.787,6.571,6.294,22.658,14.476,65.772,14.476,65.772,40.282,8.5,82.766,0,82.766,0,.227-9.391-.919-21.79-2.19-34.819,6.6-1.825,11.329-7.918,11.631-18.051.315-12.273-1.913-34.365-3.147-44.688-1.1-9.076-.315-14.476-14.376-21.4-7.049-4.066-18.756-5.992-33.144-7.918-28.323-3.776-48.766,1.951-56.017,5.035-5.753-1.511-7.351,5.237-7.351,5.237-3.185-2.4-6.886,7.792-6.886,7.792-9.315,11.883-16.641,31.9-19.083,39.023a8.334,8.334,0,0,1-2.845,3.915c-6.609,5.035-2.933,11.266-2.933,11.266l13.532,4.141s6.558,1.712,11.568-6.911C242.639,241.234,249.487,229.011,250.671,233.467Z" transform="translate(-191.585 -118.593)" fill="#353535"/>
      <g id="Group_20" data-name="Group 20" transform="translate(20.756 59.097)" clip-path="url(#clip-path)">
        <path id="Path_266" data-name="Path 266" d="M227.36,240.133s-.315-6.294-5.35-7.389,1.41-2.983,5.35-2.039,3.021-2.518,6.395-8.182,5.035-10.146,7.88-6.886,5.8,3.776,7.012,8.233-4.771,15.106-4.771,15.106l-9.391,7.288-4.771,2.669H222.6l-2.442-6.156Z" transform="translate(-210.317 -168.155)" opacity="0.3"/>
      </g>
      <path id="Path_268" data-name="Path 268" d="M250.671,233.467c.579,2.215,1.183,4.418,1.787,6.571,6.294,22.658,14.476,65.772,14.476,65.772,40.282,8.5,82.766,0,82.766,0,.227-9.391-.919-21.79-2.19-34.819,6.6-1.825,11.329-7.918,11.631-18.051.315-12.273-1.913-34.365-3.147-44.688-1.1-9.076-.315-14.476-14.376-21.4-7.049-4.066-18.756-5.992-33.144-7.918-28.323-3.776-48.766,1.951-56.017,5.035-5.753-1.511-7.351,5.237-7.351,5.237-3.185-2.4-6.886,7.792-6.886,7.792-9.315,11.883-16.641,31.9-19.083,39.023a8.334,8.334,0,0,1-2.845,3.915c-6.609,5.035-2.933,11.266-2.933,11.266l13.532,4.141s6.558,1.712,11.568-6.911C242.639,241.234,249.487,229.011,250.671,233.467Z" transform="translate(-191.585 -118.593)" fill="none" stroke="#263238" stroke-linecap="round" stroke-linejoin="round" stroke-width="1"/>
      <path id="Path_269" data-name="Path 269" d="M339.747,285.724a227.571,227.571,0,0,0-1.2-24.219c1.372,19.172-38.544,25.176-39.8,14.778s38.809-25.377,17.006-20.141c-19.021,4.569-55.891.2-64.954-.982,3.487,16.364,6.181,30.564,6.181,30.564C297.262,294.221,339.747,285.724,339.747,285.724Z" transform="translate(-181.631 -98.569)" opacity="0.3"/>
      <path id="Path_270" data-name="Path 270" d="M311.382,202.92s-5.7,16.679-5.69,25.491-15.974,14.728-16.012,14.728c8.572-1.737,16.906-4.041,20.884-5.2a3.059,3.059,0,0,0,2.216-3.21,306.95,306.95,0,0,1-1.4-31.81Z" transform="translate(-171.569 -112.064)" opacity="0.3"/>
      <path id="Path_271" data-name="Path 271" d="M239.715,199.59a67.9,67.9,0,0,0,4.192,23.024,1.083,1.083,0,0,1-1.636,1.259c-2.165-1.548-5.224-4.7-7.981-11.04" transform="translate(-185.904 -112.926)" fill="none" stroke="#263238" stroke-linecap="round" stroke-linejoin="round" stroke-width="0.75"/>
      <path id="Path_272" data-name="Path 272" d="M326.367,243.783c-3.323-11.015-9.076-13.771-13.532-14.048a.7.7,0,0,1-.327-1.259c2.593-1.4,7.641-2.518,13.847,4.355" transform="translate(-165.733 -105.722)" fill="none" stroke="#263238" stroke-linecap="round" stroke-linejoin="round" stroke-width="0.75"/>
      <path id="Path_273" data-name="Path 273" d="M273.509,215.816a1.9,1.9,0,1,1-.875-1.827,1.9,1.9,0,0,1,.875,1.827Z" transform="translate(-176.734 -109.275)" fill="#999" stroke="#263238" stroke-linecap="round" stroke-linejoin="round" stroke-width="0.75"/>
      <path id="Path_274" data-name="Path 274" d="M275.536,232.788a1.888,1.888,0,1,1-1.888-1.888A1.888,1.888,0,0,1,275.536,232.788Z" transform="translate(-176.207 -104.823)" fill="#999" stroke="#263238" stroke-linecap="round" stroke-linejoin="round" stroke-width="0.75"/>
      <path id="Path_275" data-name="Path 275" d="M280.572,273.808a1.9,1.9,0,1,1-1.9-1.888,1.9,1.9,0,0,1,1.9,1.888Z" transform="translate(-174.91 -94.207)" fill="#999" stroke="#263238" stroke-linecap="round" stroke-linejoin="round" stroke-width="1"/>
      <path id="Path_276" data-name="Path 276" d="M251.9,243.744s-6.181,5.891-3.235,5.992,6.659-3.953,10.07-4.418-2.1-2.518-2.1-2.518Z" transform="translate(-182.39 -101.743)" fill="#fff" stroke="#263238" stroke-linecap="round" stroke-linejoin="round" stroke-width="1"/>
      <path id="Path_277" data-name="Path 277" d="M292.366,239.1a2.707,2.707,0,0,0-2.052-.68c-3.021.252-11.707.906-14.98.7-5.816-.365-22.948-3.99-22.948-3.99a2.694,2.694,0,0,0-1.183.063l-10.612,3.122a2.517,2.517,0,0,0-1.032.592l-6.42,5.891a2.743,2.743,0,0,0-.529.68l-1.334,2.442a2.618,2.618,0,0,0,.466,3.134h0l10.6.277a2.518,2.518,0,0,0,1.787-.629l3.147-2.694a2.869,2.869,0,0,0,.541-.629c.768-1.259,3.776-5.413,8.434-5.035,0,0-10.07,5.35-8.17,7.553s9.6-4.091,12.122-3.462,2.681,6.81,16.364,4.569a4.305,4.305,0,0,1,1.838.088l12.462,3.487a2.883,2.883,0,0,0,3.562-2.064C295.4,248.947,296.256,242.653,292.366,239.1Z" transform="translate(-186.768 -103.736)" fill="#fff" stroke="#263238" stroke-linecap="round" stroke-linejoin="round" stroke-width="1"/>
      <path id="Path_278" data-name="Path 278" d="M252.257,236.92l-2.669.453a7.175,7.175,0,0,0-3.512,1.662l-2.832,2.43a7.428,7.428,0,0,0-1.259,1.473l-1.825,2.782a6.6,6.6,0,0,1-.667.869c-1.083,1.259-4.066,4.746-.843,4.267" transform="translate(-185.152 -103.265)" fill="#fff" stroke="#263238" stroke-linecap="round" stroke-linejoin="round" stroke-width="1"/>
      <path id="Path_279" data-name="Path 279" d="M245.687,237.67l-2.757.755a5.035,5.035,0,0,0-2.291,1.259l-2.153,2.064a3.774,3.774,0,0,0-.566.629l-3.537,4.7s-1.888,3.323,0,3.386" transform="translate(-186.097 -103.071)" fill="#fff" stroke="#263238" stroke-linecap="round" stroke-linejoin="round" stroke-width="1"/>
      <path id="Path_280" data-name="Path 280" d="M313.47,200.8a289,289,0,0,0,1.259,34.479,3.059,3.059,0,0,1-2.215,3.21A235.883,235.883,0,0,1,282,245.349" transform="translate(-173.556 -112.613)" fill="none" stroke="#263238" stroke-linecap="round" stroke-linejoin="round" stroke-width="1"/>
      <path id="Path_281" data-name="Path 281" d="M307.563,194.6c-.164,1.259-.3,2.631-.4,4.028" transform="translate(-167.045 -114.217)" fill="none" stroke="#263238" stroke-linecap="round" stroke-linejoin="round" stroke-width="0.75"/>
      <path id="Path_282" data-name="Path 282" d="M311.5,185.24c-1.435,1.259-2.518,3.537-3.26,6.558" transform="translate(-166.765 -116.64)" fill="none" stroke="#263238" stroke-linecap="round" stroke-linejoin="round" stroke-width="0.75"/>
      <path id="Path_283" data-name="Path 283" d="M260.98,180.521s.793-2.518,5.035-3.94,18.958-3.676,26.523,0-6.923,23.678-6.923,23.678l-6.709,9.29-5.979,4.481-2.669-7.968-3.462-3.6s-7.477-6.13-6.848-12.185S260.98,180.521,260.98,180.521Z" transform="translate(-179.273 -119.398)" fill="#fff"/>
      <path id="Path_284" data-name="Path 284" d="M298.538,180.21c-1.183-4.141-6.584-5.3-6.584-5.3-25.805-4.406-31.256,5.035-31.256,5.035a37.991,37.991,0,0,0,0,26.435s7.339-3.046,8.6,0,3.562,9.542,3.562,9.542a29.1,29.1,0,0,0,8.975-7.867c3.99-5.249,13.356,0,13.356,0C301.257,197.569,298.538,180.21,298.538,180.21Zm-6.294-.3c-9.995,31.369-18.806,32.729-18.806,32.729-2.933-11.531-5.451-9.013-9.441-16.226-3.2-5.79-2.115-13.117-1.561-15.8a2.2,2.2,0,0,1,1.133-1.511c9.919-5.035,22.054-3.185,27.052-2.09a2.241,2.241,0,0,1,1.674,2.9Z" transform="translate(-179.684 -119.616)" fill="#353535"/>
      <g id="Group_21" data-name="Group 21" transform="translate(78.641 54.123)" clip-path="url(#clip-path-2)">
        <path id="Path_285" data-name="Path 285" d="M298.538,180.21c-1.183-4.141-6.584-5.3-6.584-5.3-25.805-4.406-31.256,5.035-31.256,5.035a37.991,37.991,0,0,0,0,26.435s7.339-3.046,8.6,0,3.562,9.542,3.562,9.542a29.1,29.1,0,0,0,8.975-7.867c3.99-5.249,13.356,0,13.356,0C301.257,197.569,298.538,180.21,298.538,180.21Zm-6.294-.3c-9.995,31.369-18.806,32.729-18.806,32.729-2.933-11.531-5.451-9.013-9.441-16.226-3.2-5.79-2.115-13.117-1.561-15.8a2.2,2.2,0,0,1,1.133-1.511c9.919-5.035,22.054-3.185,27.052-2.09a2.241,2.241,0,0,1,1.674,2.9Z" transform="translate(-258.325 -173.739)" fill="#fff" opacity="0.4"/>
      </g>
      <path id="Path_287" data-name="Path 287" d="M298.538,180.21c-1.183-4.141-6.584-5.3-6.584-5.3-25.805-4.406-31.256,5.035-31.256,5.035a37.991,37.991,0,0,0,0,26.435s7.339-3.046,8.6,0,3.562,9.542,3.562,9.542a29.1,29.1,0,0,0,8.975-7.867c3.99-5.249,13.356,0,13.356,0C301.257,197.569,298.538,180.21,298.538,180.21Zm-6.294-.3c-9.995,31.369-18.806,32.729-18.806,32.729-2.933-11.531-5.451-9.013-9.441-16.226-3.2-5.79-2.115-13.117-1.561-15.8a2.2,2.2,0,0,1,1.133-1.511c9.919-5.035,22.054-3.185,27.052-2.09a2.241,2.241,0,0,1,1.674,2.9Z" transform="translate(-179.684 -119.616)" fill="none" stroke="#263238" stroke-linecap="round" stroke-linejoin="round" stroke-width="1"/>
      <path id="Path_288" data-name="Path 288" d="M259.612,140.8s-22.243,4.456-9.995,18.882C263.2,175.757,259.612,140.8,259.612,140.8Z" transform="translate(-182.89 -128.141)" fill="#263238" stroke="#263238" stroke-linecap="round" stroke-linejoin="round" stroke-width="1"/>
      <path id="Path_289" data-name="Path 289" d="M250.115,177.4s-5.287-21.4,4.783-31.684,20.984-12.374,29.167-7.339S295.646,156,294.387,162.5s-.655,29.783-11.87,39.438-18.114,7.276-25.529-5.879C252.066,187.435,249.738,184.955,250.115,177.4Z" transform="translate(-182.167 -129.446)" fill="#fff" stroke="#263238" stroke-linecap="round" stroke-linejoin="round" stroke-width="1"/>
      <path id="Path_290" data-name="Path 290" d="M290.293,174.508s-8.459-8.4-11.052-18.253-4.053-11.543-13.708-6.722-24.71-1.662-20.77-13.847c4.141-12.789,16.792,3.776,28.952-.415s20.808,3.361,20.821,14.476c0,0,7.351,7.137,0,25.591Z" transform="translate(-183.36 -130.744)" fill="#263238" stroke="#263238" stroke-linecap="round" stroke-linejoin="round" stroke-width="1"/>
      <path id="Path_291" data-name="Path 291" d="M278.69,166.594s2.14-11.732,8.082-10.649,1.7,18.4-5.3,16.516" transform="translate(-174.413 -124.24)" fill="#fff" stroke="#263238" stroke-linecap="round" stroke-linejoin="round" stroke-width="1"/>
      <path id="Path_292" data-name="Path 292" d="M256.575,167.55S254.234,178.439,255,180.3s7.956.441,7.956.441" transform="translate(-180.584 -121.218)" fill="#fff" stroke="#263238" stroke-linecap="round" stroke-linejoin="round" stroke-width="1"/>
      <path id="Path_293" data-name="Path 293" d="M262.09,182.866s5.639,2.228,10.612-5.186" transform="translate(-178.709 -118.596)" fill="#fff" stroke="#263238" stroke-linecap="round" stroke-linejoin="round" stroke-width="1"/>
      <path id="Path_294" data-name="Path 294" d="M253.568,168.609c.2,1.007-.063,1.926-.592,2.039s-1.145-.617-1.359-1.636,0-1.926.592-2.039S253.379,167.589,253.568,168.609Z" transform="translate(-181.441 -121.37)" fill="#263238"/>
      <path id="Path_295" data-name="Path 295" d="M264.525,167.729c.214,1.007,0,1.926-.592,2.039s-1.133-.629-1.347-1.636,0-1.926.592-2.039S264.387,166.709,264.525,167.729Z" transform="translate(-178.602 -121.598)" fill="#263238"/>
      <path id="Path_296" data-name="Path 296" d="M258.3,168.55c.29,2.857-2.518,5.476-6.395,5.853s-7.15-1.611-7.44-4.469,2.719-4.1,6.546-4.494S258.021,165.706,258.3,168.55Z" transform="translate(-183.276 -121.79)" fill="none" stroke="#263238" stroke-linecap="round" stroke-linejoin="round" stroke-width="1"/>
      <path id="Path_297" data-name="Path 297" d="M272.448,167.14c.29,2.845-2.581,5.476-6.395,5.853s-7.15-1.624-7.44-4.469,2.719-4.116,6.546-4.494S272.171,164.282,272.448,167.14Z" transform="translate(-179.614 -122.154)" fill="none" stroke="#263238" stroke-linecap="round" stroke-linejoin="round" stroke-width="1"/>
      <line id="Line_3" data-name="Line 3" y1="0.39" x2="3.978" transform="translate(75.022 46.37)" fill="#fff" stroke="#263238" stroke-linecap="round" stroke-linejoin="round" stroke-width="1"/>
      <line id="Line_4" data-name="Line 4" y1="8.623" x2="14.627" transform="translate(92.356 34.927)" fill="#fff" stroke="#263238" stroke-linecap="round" stroke-linejoin="round" stroke-width="1"/>
      <line id="Line_5" data-name="Line 5" x2="0.692" y2="1.674" transform="translate(109.488 56.982)" fill="#fff" stroke="#263238" stroke-linecap="round" stroke-linejoin="round" stroke-width="1"/>
      <path id="Path_298" data-name="Path 298" d="M248.9,164.619s2.228-2.832,4.96-1.473" transform="translate(-182.123 -122.453)" fill="#fff" stroke="#263238" stroke-linecap="round" stroke-linejoin="round" stroke-width="1"/>
      <path id="Path_299" data-name="Path 299" d="M268.581,163.654s-3.915-3.776-7.691-1.108" transform="translate(-179.02 -122.76)" fill="#fff" stroke="#263238" stroke-linecap="round" stroke-linejoin="round" stroke-width="1"/>
      <path id="Path_300" data-name="Path 300" d="M252.83,135.8c5.954,1.888,15.974,4.2,24.156,1.725,12.588-3.776,8.27,10.322,11.1,14.212" transform="translate(-181.106 -129.435)" fill="none" stroke="#7f7f7f" stroke-linecap="round" stroke-linejoin="round" stroke-width="1"/>
      <path id="Path_301" data-name="Path 301" d="M248.73,134.3s.994.441,2.694,1.045" transform="translate(-182.167 -129.823)" fill="none" stroke="#7f7f7f" stroke-linecap="round" stroke-linejoin="round" stroke-width="1"/>
      <path id="Path_302" data-name="Path 302" d="M260.68,141.518c.667-.2,1.359-.441,2.09-.718" transform="translate(-179.074 -128.141)" fill="none" stroke="#7f7f7f" stroke-linecap="round" stroke-linejoin="round" stroke-width="1"/>
      <path id="Path_303" data-name="Path 303" d="M249.83,140.05s2.669,4.116,11.254,2.291" transform="translate(-181.882 -128.335)" fill="none" stroke="#7f7f7f" stroke-linecap="round" stroke-linejoin="round" stroke-width="1"/>
      <path id="Path_304" data-name="Path 304" d="M275.23,146.46a30.362,30.362,0,0,0,5.337,13.482" transform="translate(-175.308 -126.676)" fill="none" stroke="#7f7f7f" stroke-linecap="round" stroke-linejoin="round" stroke-width="1"/>
      <path id="Path_305" data-name="Path 305" d="M275,142.92a20.026,20.026,0,0,0,.076,2.253" transform="translate(-175.369 -127.592)" fill="none" stroke="#7f7f7f" stroke-linecap="round" stroke-linejoin="round" stroke-width="1"/>
      <path id="Path_306" data-name="Path 306" d="M283.968,251.618a1.46,1.46,0,0,0,.932,2.581c8.51,0,31.47.1,40.282-.415,11.014-.629,2.606-12.588-6.294-8.031C310.818,249.969,293.648,242.945,283.968,251.618Z" transform="translate(-173.183 -101.246)" opacity="0.3"/>
      <path id="Path_307" data-name="Path 307" d="M207.71,243.239s5.148-13.708,18.064-11.531,3.046,12.991-3.172,13.948C222.6,245.656,221.658,241.892,207.71,243.239Z" transform="translate(-192.783 -104.674)" fill="#fff" stroke="#263238" stroke-linecap="round" stroke-linejoin="round" stroke-width="1"/>
      <path id="Path_308" data-name="Path 308" d="M199.815,249.487c-1.7,1.7-5.79,1.85-3.034-1.838a19.5,19.5,0,0,1,8.812-6.508c6.118-2.732,8.509-2.178,14.048-3.4s6.584,1.045,8.5,2.09c4.569,2.518,5.665,2.946,6.823,5.463s2.417,5.79-1.158,5.79c-3.248,0-3.462-5.375-6.609-5.161s-4.721,5.161-6.923,5.161h-.831c-1.888,0-1.989-1.574-.843-4.041s2.417-4.7,2.417-4.7a9.655,9.655,0,0,0-4.255,4.469c-1.511,3.21-1.787,4.557-4.569,4.557s-2.518-2.064.176-6.621a10.75,10.75,0,0,0-3.839,3.94c-1.36,2.518-2.077,2.392-3.852,2.392-2.341,0-2.178-3.852,1.964-6.37C206.663,244.716,205.744,243.583,199.815,249.487Z" transform="translate(-195.852 -103.143)" fill="#fff" stroke="#263238" stroke-linecap="round" stroke-linejoin="round" stroke-width="1"/>
      <path id="Path_309" data-name="Path 309" d="M212.426,239.69s-1.624-.076-2.656,2.669" transform="translate(-192.25 -102.548)" fill="#fff" stroke="#263238" stroke-linecap="round" stroke-linejoin="round" stroke-width="0.75"/>
    </g>
    <path id="Path_310" data-name="Path 310" d="M376.2,145.54a258.972,258.972,0,0,1,23.175,20.569" transform="translate(749.366 143.899)" fill="none" stroke="#263238" stroke-linecap="round" stroke-linejoin="round" stroke-width="0.75"/>
    <path id="Path_311" data-name="Path 311" d="M369.22,140.29c1.536,1.108,3.072,2.228,4.582,3.374" transform="translate(747.559 142.54)" fill="none" stroke="#263238" stroke-linecap="round" stroke-linejoin="round" stroke-width="0.75"/>
    <path id="Path_312" data-name="Path 312" d="M362.25,135.5q2.367,1.548,4.708,3.172" transform="translate(745.755 141.3)" fill="none" stroke="#263238" stroke-linecap="round" stroke-linejoin="round" stroke-width="0.75"/>
    <path id="Path_313" data-name="Path 313" d="M311.09,111.3a255,255,0,0,1,59.29,27.178" transform="translate(732.515 135.037)" fill="none" stroke="#263238" stroke-linecap="round" stroke-linejoin="round" stroke-width="0.75"/>
    <path id="Path_314" data-name="Path 314" d="M300.17,108.22q3.776.969,7.616,2.039" transform="translate(729.689 134.24)" fill="none" stroke="#263238" stroke-linecap="round" stroke-linejoin="round" stroke-width="0.75"/>
    <path id="Path_315" data-name="Path 315" d="M288.93,105.73q4.154.793,8.283,1.737" transform="translate(726.78 133.596)" fill="none" stroke="#263238" stroke-linecap="round" stroke-linejoin="round" stroke-width="0.75"/>
    <path id="Path_316" data-name="Path 316" d="M278.92,104.06q3.588.516,7.15,1.108" transform="translate(724.189 133.164)" fill="none" stroke="#263238" stroke-linecap="round" stroke-linejoin="round" stroke-width="0.75"/>
    <path id="Path_317" data-name="Path 317" d="M218.61,105.094a258.772,258.772,0,0,1,70.493-1.259" transform="translate(708.581 132.633)" fill="none" stroke="#263238" stroke-linecap="round" stroke-linejoin="round" stroke-width="0.75"/>
    <path id="Path_318" data-name="Path 318" d="M210.36,106.153c2.14-.415,4.293-.818,6.432-1.183" transform="translate(706.446 133.399)" fill="none" stroke="#263238" stroke-linecap="round" stroke-linejoin="round" stroke-width="0.75"/>
    <path id="Path_319" data-name="Path 319" d="M202.35,107.958c2.153-.516,4.293-.994,6.458-1.448" transform="translate(704.373 133.798)" fill="none" stroke="#263238" stroke-linecap="round" stroke-linejoin="round" stroke-width="0.75"/>
    <path id="Path_320" data-name="Path 320" d="M192.51,110.658q3.285-.963,6.584-1.838" transform="translate(701.826 134.396)" fill="none" stroke="#263238" stroke-linecap="round" stroke-linejoin="round" stroke-width="0.75"/>
    <path id="Path_321" data-name="Path 321" d="M133,145.849A255.111,255.111,0,0,1,200.975,112" transform="translate(686.425 135.219)" fill="none" stroke="#263238" stroke-linecap="round" stroke-linejoin="round" stroke-width="0.75"/>
    <path id="Path_322" data-name="Path 322" d="M125,145.741q2.946-2.278,5.954-4.481" transform="translate(684.354 142.791)" fill="none" stroke="#263238" stroke-linecap="round" stroke-linejoin="round" stroke-width="0.75"/>
    <path id="Path_323" data-name="Path 323" d="M116.9,152.541c2.153-1.863,4.343-3.676,6.546-5.451" transform="translate(682.258 144.3)" fill="none" stroke="#263238" stroke-linecap="round" stroke-linejoin="round" stroke-width="0.75"/>
    <path id="Path_324" data-name="Path 324" d="M105.64,163.648q4.431-4.431,9.013-8.6" transform="translate(679.344 146.36)" fill="none" stroke="#263238" stroke-linecap="round" stroke-linejoin="round" stroke-width="0.75"/>
    <circle id="Ellipse_6" data-name="Ellipse 6" cx="31.319" cy="31.319" r="31.319" transform="translate(814.398 287.244) rotate(-76.59)" fill="#353535"/>
    <g id="Group_22" data-name="Group 22" transform="translate(814.398 226.313)" clip-path="url(#clip-path-3)">
      <circle id="Ellipse_7" data-name="Ellipse 7" cx="31.319" cy="31.319" r="31.319" transform="translate(0 60.931) rotate(-76.59)" fill="#fff" opacity="0.3"/>
    </g>
    <circle id="Ellipse_9" data-name="Ellipse 9" cx="31.319" cy="31.319" r="31.319" transform="translate(814.398 287.244) rotate(-76.59)" stroke-width="0.75" stroke="#263238" stroke-linecap="round" stroke-linejoin="round" fill="none"/>
    <path id="Path_325" data-name="Path 325" d="M147.551,141.156v-7.842c0-1.964-.554-2.518-2.681-2.518v-3.839c2.127,0,2.681-.592,2.681-2.518V116.6a4.368,4.368,0,0,1,4.733-4.733h2.392v3.776h-.692c-1.485,0-2.253.68-2.253,3.034v6.382a3.537,3.537,0,0,1-2.606,3.776v.088a3.537,3.537,0,0,1,2.606,3.776v6.395c0,2.341.768,3.021,2.253,3.021h.692v3.776h-2.392a4.368,4.368,0,0,1-4.733-4.733Z" transform="translate(689.497 135.179)" fill="#fff" stroke="#263238" stroke-linecap="round" stroke-linejoin="round" stroke-width="0.75"/>
    <path id="Path_326" data-name="Path 326" d="M165.23,142.062h.68c1.5,0,2.266-.68,2.266-3.021v-6.395a3.55,3.55,0,0,1,2.593-3.776v-.088a3.537,3.537,0,0,1-2.593-3.776v-6.382c0-2.354-.768-3.034-2.266-3.034h-.68v-3.776h2.392a4.368,4.368,0,0,1,4.733,4.733v7.842c0,1.964.554,2.518,2.681,2.518v3.839c-2.127,0-2.681.592-2.681,2.518v7.842a4.368,4.368,0,0,1-4.733,4.733H165.23Z" transform="translate(694.766 135.166)" fill="#fff" stroke="#263238" stroke-linecap="round" stroke-linejoin="round" stroke-width="0.75"/>
    <rect id="Rectangle_87" data-name="Rectangle 87" width="48.174" height="48.174" rx="11.96" transform="translate(758.31 304.003)" stroke-width="0.75" stroke="#263238" stroke-linecap="round" stroke-linejoin="round" fill="#353535"/>
    <path id="Path_327" data-name="Path 327" d="M89.71,178.5v-2.329l9.63-4.154v2.518l-6.634,2.807,6.634,2.795v2.518Z" transform="translate(675.221 150.752)" fill="#fff" stroke="#263238" stroke-linecap="round" stroke-linejoin="round" stroke-width="0.75"/>
    <path id="Path_328" data-name="Path 328" d="M107.626,167.5h3l-8.686,22.029h-3Z" transform="translate(677.61 149.582)" fill="#fff" stroke="#263238" stroke-linecap="round" stroke-linejoin="round" stroke-width="0.75"/>
    <path id="Path_329" data-name="Path 329" d="M109.8,180.144l6.634-2.795-6.634-2.832V172l9.63,4.154v2.329l-9.63,4.154Z" transform="translate(680.421 150.747)" fill="#fff" stroke="#263238" stroke-linecap="round" stroke-linejoin="round" stroke-width="0.75"/>
    <circle id="Ellipse_10" data-name="Ellipse 10" cx="26.724" cy="26.724" r="26.724" transform="matrix(0.228, -0.974, 0.974, 0.228, 1042.175, 276.87)" fill="#353535"/>
    <g id="Group_23" data-name="Group 23" transform="translate(1042 225)" clip-path="url(#clip-path-4)">
      <circle id="Ellipse_11" data-name="Ellipse 11" cx="26.724" cy="26.724" r="26.724" transform="matrix(0.228, -0.974, 0.974, 0.228, 0, 52.045)" opacity="0.2"/>
    </g>
    <circle id="Ellipse_13" data-name="Ellipse 13" cx="26.724" cy="26.724" r="26.724" transform="matrix(0.228, -0.974, 0.974, 0.228, 1042.175, 276.87)" stroke-width="0.75" stroke="#263238" stroke-linecap="round" stroke-linejoin="round" fill="none"/>
    <rect id="Rectangle_88" data-name="Rectangle 88" width="58.396" height="58.396" rx="13.6" transform="translate(930.552 204.721)" stroke-width="0.75" stroke="#263238" stroke-linecap="round" stroke-linejoin="round" fill="#353535"/>
    <path id="Path_333" data-name="Path 333" d="M230.53,110.005v-12.3c0-3.537,1.838-5.627,5.3-5.627s5.362,2.09,5.362,5.627v2.417h-3.4V97.468c0-1.5-.73-2.115-1.8-2.115s-1.8.617-1.8,2.115v12.789c0,1.511.718,2.1,1.8,2.1s1.8-.592,1.8-2.1v-3.5h3.4v3.248c0,3.525-1.838,5.614-5.3,5.614S230.53,113.53,230.53,110.005Z" transform="translate(711.666 130.063)" fill="#fff" stroke="#263238" stroke-linecap="round" stroke-linejoin="round" stroke-width="0.75"/>
    <path id="Path_334" data-name="Path 334" d="M240.23,109.857V108.6h3.4v1.574c0,1.636.718,2.228,1.863,2.228s1.863-.592,1.863-2.291c0-1.9-.718-3.109-3.071-5.174-3.009-2.643-3.99-4.507-3.99-7.125,0-3.6,1.863-5.69,5.363-5.69s5.237,2.09,5.237,5.753v.944h-3.4V97.646c0-1.636-.655-2.253-1.8-2.253s-1.788.617-1.788,2.19.743,2.87,3.1,4.935c3.009,2.643,3.965,4.481,3.965,7.326,0,3.776-1.9,5.816-5.438,5.816S240.23,113.52,240.23,109.857Z" transform="translate(714.176 130.074)" fill="#fff" stroke="#263238" stroke-linecap="round" stroke-linejoin="round" stroke-width="0.75"/>
    <path id="Path_335" data-name="Path 335" d="M249.9,109.857V108.6h3.4v1.574c0,1.636.718,2.228,1.863,2.228s1.863-.592,1.863-2.291c0-1.9-.718-3.109-3.072-5.174-3.009-2.643-3.99-4.507-3.99-7.125,0-3.6,1.863-5.69,5.362-5.69s5.237,2.09,5.237,5.753v.944h-3.411V97.646c0-1.636-.655-2.253-1.8-2.253s-1.788.617-1.788,2.19.743,2.87,3.1,4.935c3.009,2.643,3.965,4.481,3.965,7.326,0,3.776-1.9,5.816-5.438,5.816S249.9,113.52,249.9,109.857Z" transform="translate(716.679 130.074)" fill="#fff" stroke="#263238" stroke-linecap="round" stroke-linejoin="round" stroke-width="0.75"/>
    <circle id="Ellipse_14" data-name="Ellipse 14" cx="26.661" cy="26.661" r="26.661" transform="translate(1112.861 333.228) rotate(-76.59)" fill="#353535"/>
    <g id="Group_24" data-name="Group 24" transform="translate(1113 281)" clip-path="url(#clip-path-5)">
      <circle id="Ellipse_15" data-name="Ellipse 15" cx="26.661" cy="26.661" r="26.661" transform="translate(0 51.869) rotate(-76.59)" fill="#fff" opacity="0.3"/>
    </g>
    <circle id="Ellipse_17" data-name="Ellipse 17" cx="26.661" cy="26.661" r="26.661" transform="translate(1112.861 333.228) rotate(-76.59)" stroke-width="0.75" stroke="#263238" stroke-linecap="round" stroke-linejoin="round" fill="none"/>
    <g id="freepik--Desk--inject-9" transform="translate(776.349 365.13)">
      <path id="Path_338" data-name="Path 338" d="M142.449,446.621h-4.67L136.52,261.25h5.929Z" transform="translate(-89.013 -191.285)" fill="#858585" stroke="#263238" stroke-linecap="round" stroke-linejoin="round" stroke-width="1"/>
      <path id="Path_339" data-name="Path 339" d="M145.888,446.621H141.23V261.25h5.916Z" transform="translate(-87.794 -191.285)" fill="#999" stroke="#263238" stroke-linecap="round" stroke-linejoin="round" stroke-width="1"/>
      <rect id="Rectangle_89" data-name="Rectangle 89" width="320" height="11.354" transform="translate(0 58.624)" stroke-width="1" stroke="#263238" stroke-linecap="round" stroke-linejoin="round" fill="#263238"/>
      <rect id="Rectangle_90" data-name="Rectangle 90" width="71.651" height="11.354" transform="translate(315.217 58.624)" stroke-width="1" stroke="#263238" stroke-linecap="round" stroke-linejoin="round" fill="#858585"/>
      <rect id="Rectangle_91" data-name="Rectangle 91" width="318.125" height="18.706" transform="translate(16.39 69.965)" fill="#353535" stroke="#263238" stroke-miterlimit="10" stroke-width="1"/>
      <rect id="Rectangle_92" data-name="Rectangle 92" width="37.047" height="18.706" transform="translate(371.561 88.684) rotate(180)" fill="#353535"/>
      <g id="Group_25" data-name="Group 25" transform="translate(334.514 69.978)" clip-path="url(#clip-path-6)">
        <rect id="Rectangle_93" data-name="Rectangle 93" width="37.047" height="18.706" transform="translate(37.047 18.706) rotate(180)" opacity="0.3"/>
      </g>
      <rect id="Rectangle_95" data-name="Rectangle 95" width="37.047" height="18.706" transform="translate(371.561 88.684) rotate(180)" fill="none" stroke="#263238" stroke-miterlimit="10" stroke-width="1"/>
      <path id="Path_340" data-name="Path 340" d="M365.736,446.621h-4.658L359.82,261.25h5.916Z" transform="translate(-31.222 -191.285)" fill="#858585" stroke="#263238" stroke-linecap="round" stroke-linejoin="round" stroke-width="1"/>
      <path id="Path_341" data-name="Path 341" d="M369.19,446.621h-4.67V261.25h5.929Z" transform="translate(-30.006 -191.285)" fill="#999" stroke="#263238" stroke-linecap="round" stroke-linejoin="round" stroke-width="1"/>
      <path id="Path_342" data-name="Path 342" d="M113.019,446.621h-4.67L107.09,261.25h5.929Z" transform="translate(-96.629 -191.285)" fill="#858585" stroke="#263238" stroke-linecap="round" stroke-linejoin="round" stroke-width="1"/>
      <path id="Path_343" data-name="Path 343" d="M116.458,446.621H111.8V261.25h5.916Z" transform="translate(-95.41 -191.285)" fill="#999" stroke="#263238" stroke-linecap="round" stroke-linejoin="round" stroke-width="1"/>
      <path id="Path_344" data-name="Path 344" d="M395.169,446.621H390.5L389.24,261.25h5.929Z" transform="translate(-23.608 -191.285)" fill="#858585" stroke="#263238" stroke-linecap="round" stroke-linejoin="round" stroke-width="1"/>
      <path id="Path_345" data-name="Path 345" d="M398.608,446.621H393.95V261.25h5.916Z" transform="translate(-22.389 -191.285)" fill="#999" stroke="#263238" stroke-linecap="round" stroke-linejoin="round" stroke-width="1"/>
      <path id="Path_346" data-name="Path 346" d="M271.044,252.164h-37.5a1.4,1.4,0,0,1-1.385-1.4v-3.1l40.282,1.259v1.838A1.4,1.4,0,0,1,271.044,252.164Z" transform="translate(-64.261 -194.799)" fill="#858585" stroke="#263238" stroke-linecap="round" stroke-linejoin="round" stroke-width="1"/>
      <path id="Path_347" data-name="Path 347" d="M248.253,263.034h-75.39a3.008,3.008,0,0,1-2.757-2.1l-16.188-52.542a1.989,1.989,0,0,1,1.913-2.719h75.39a3,3,0,0,1,2.757,2.09L250.167,260.3a2,2,0,0,1-1.913,2.732Z" transform="translate(-84.546 -205.669)" fill="#999" stroke="#263238" stroke-linecap="round" stroke-linejoin="round" stroke-width="1"/>
      <path id="Path_348" data-name="Path 348" d="M237.581,260.3,221.393,207.76a3,3,0,0,0-2.757-2.09H215.3a3,3,0,0,1,2.757,2.09L234.245,260.3a2,2,0,0,1-1.913,2.732h3.386a2,2,0,0,0,1.863-2.732Z" transform="translate(-68.624 -205.669)" fill="#858585" stroke="#263238" stroke-linecap="round" stroke-linejoin="round" stroke-width="1"/>
      <path id="Path_349" data-name="Path 349" d="M197.758,229.408a4.041,4.041,0,0,1-4.091,4.67,5.425,5.425,0,0,1-5.237-4.67,4.028,4.028,0,0,1,4.091-4.658A5.438,5.438,0,0,1,197.758,229.408Z" transform="translate(-75.591 -200.731)" fill="#fff" stroke="#263238" stroke-linecap="round" stroke-linejoin="round" stroke-width="1"/>
    </g>
    <path id="Path_350" data-name="Path 350" d="M6.672-8.4V4.217H6.288V-1.857h-4.8V4.217H1.1V-8.4h.383v5.966h4.8V-8.4Zm10.414.613H14.572v12h-.383v-12H11.676V-8.4h5.41Zm4.9-.613h.541L25.471,3.136h.045L28.458-8.4H29V4.217h-.383V-7.174H28.57L25.685,4.217H25.3L22.417-7.174h-.045V4.217h-.383Zm16.861,12v.613H34.521L34.51-8.4H34.9l-.023,12Z" transform="translate(1054.396 258.9)" fill="#353535" stroke="#f9f9f9" stroke-width="2"/>
    <path id="Path_351" data-name="Path 351" d="M5.253-11.9a3.765,3.765,0,0,1,2.363.683A3.64,3.64,0,0,1,8.857-9.525a6.22,6.22,0,0,1,.357,2.09,6.22,6.22,0,0,1-.357,2.09A3.64,3.64,0,0,1,7.616-3.654a3.765,3.765,0,0,1-2.363.683H2.108V2.37H1.564V-11.9Zm0,8.236A3.553,3.553,0,0,0,7.667-4.52a3.7,3.7,0,0,0,.986-2.915,3.7,3.7,0,0,0-.986-2.915,3.553,3.553,0,0,0-2.414-.856H2.108v7.543ZM23.63-11.9V2.37h-.578V-4.5H15.81V2.37h-.578V-11.9h.578v6.748h7.242V-11.9Zm10.3,0a3.765,3.765,0,0,1,2.363.683,3.64,3.64,0,0,1,1.241,1.692,6.219,6.219,0,0,1,.357,2.09,6.219,6.219,0,0,1-.357,2.09A3.64,3.64,0,0,1,36.3-3.654a3.765,3.765,0,0,1-2.363.683H30.787V2.37h-.544V-11.9Zm0,8.236a3.553,3.553,0,0,0,2.414-.856,3.7,3.7,0,0,0,.986-2.915,3.7,3.7,0,0,0-.986-2.915,3.553,3.553,0,0,0-2.414-.856H30.787v7.543Z" transform="translate(1124.936 317.4)" fill="#353535" stroke="#f9f9f9" stroke-width="2"/>
  </g>
</svg>
